<?xml version="1.0" encoding="UTF-8"?>
<svg width="3656px" height="3656px" viewBox="0 0 3656 3656" version="1.1" xmlns="http://www.w3.org/2000/svg" xmlns:xlink="http://www.w3.org/1999/xlink">
    <!-- Generator: Sketch 50.2 (55047) - http://www.bohemiancoding.com/sketch -->
    <title>Group 3</title>
    <desc>Created with Sketch.</desc>
    <defs>
        <linearGradient x1="50%" y1="0%" x2="50%" y2="100%" id="linearGradient-1">
            <stop stop-color="#000000" stop-opacity="0.269361413" offset="0%"></stop>
            <stop stop-color="#000000" stop-opacity="0" offset="100%"></stop>
        </linearGradient>
        <path d="M1737.5,1665.01578 C1753.4367,1631.31424 1787.74568,1608 1827.5,1608 C1867.25432,1608 1901.5633,1631.31424 1917.5,1665.01578 C1933.4367,1631.31424 1967.74568,1608 2007.5,1608 C2062.45233,1608 2107,1652.54767 2107,1707.5 C2107,1747.25432 2083.68576,1781.5633 2049.98422,1797.5 C2083.68576,1813.4367 2107,1847.74568 2107,1887.5 C2107,1927.25432 2083.68576,1961.5633 2049.98422,1977.5 C2083.68576,1993.4367 2107,2027.74568 2107,2067.5 C2107,2122.45233 2062.45233,2167 2007.5,2167 C1967.74568,2167 1933.4367,2143.68576 1917.5,2109.98422 C1901.5633,2143.68576 1867.25432,2167 1827.5,2167 C1787.74568,2167 1753.4367,2143.68576 1737.5,2109.98422 C1721.5633,2143.68576 1687.25432,2167 1647.5,2167 C1592.54767,2167 1548,2122.45233 1548,2067.5 C1548,2027.74568 1571.31424,1993.4367 1605.01578,1977.5 C1571.31424,1961.5633 1548,1927.25432 1548,1887.5 C1548,1847.74568 1571.31424,1813.4367 1605.01578,1797.5 C1571.31424,1781.5633 1548,1747.25432 1548,1707.5 C1548,1652.54767 1592.54767,1608 1647.5,1608 C1687.25432,1608 1721.5633,1631.31424 1737.5,1665.01578 Z M1737.5,1749.98422 C1727.65588,1770.80171 1710.80171,1787.65588 1689.98422,1797.5 C1710.80171,1807.34412 1727.65588,1824.19829 1737.5,1845.01578 C1747.34412,1824.19829 1764.19829,1807.34412 1785.01578,1797.5 C1764.19829,1787.65588 1747.34412,1770.80171 1737.5,1749.98422 Z M1737.5,2025.01578 C1747.34412,2004.19829 1764.19829,1987.34412 1785.01578,1977.5 C1764.19829,1967.65588 1747.34412,1950.80171 1737.5,1929.98422 C1727.65588,1950.80171 1710.80171,1967.65588 1689.98422,1977.5 C1710.80171,1987.34412 1727.65588,2004.19829 1737.5,2025.01578 Z M1917.5,1749.98422 C1907.65588,1770.80171 1890.80171,1787.65588 1869.98422,1797.5 C1890.80171,1807.34412 1907.65588,1824.19829 1917.5,1845.01578 C1927.34412,1824.19829 1944.19829,1807.34412 1965.01578,1797.5 C1944.19829,1787.65588 1927.34412,1770.80171 1917.5,1749.98422 Z M1917.5,2025.01578 C1927.34412,2004.19829 1944.19829,1987.34412 1965.01578,1977.5 C1944.19829,1967.65588 1927.34412,1950.80171 1917.5,1929.98422 C1907.65588,1950.80171 1890.80171,1967.65588 1869.98422,1977.5 C1890.80171,1987.34412 1907.65588,2004.19829 1917.5,2025.01578 Z" id="path-2"></path>
        <filter x="-18.2%" y="-7.5%" width="125.8%" height="125.8%" filterUnits="objectBoundingBox" id="filter-3">
            <feOffset dx="-30" dy="30" in="SourceAlpha" result="shadowOffsetOuter1"></feOffset>
            <feGaussianBlur stdDeviation="19" in="shadowOffsetOuter1" result="shadowBlurOuter1"></feGaussianBlur>
            <feColorMatrix values="0 0 0 0 0   0 0 0 0 0   0 0 0 0 0  0 0 0 0.13 0" type="matrix" in="shadowBlurOuter1"></feColorMatrix>
        </filter>
    </defs>
    <g id="Page-1" stroke="none" stroke-width="1" fill="none" fill-rule="evenodd">
        <g id="Group-3">
            <g id="Group-2">
                <g id="Group" transform="translate(468.000000, 1462.000000)" fill="url(#linearGradient-1)">
                    <path d="M687.035198,214.672743 L687.035198,93.1747775 L792.4752,93.1747775 L901.524678,-15.8747005 L1010.57416,93.1747775 L1067.05629,93.1747775 L1067.05629,214.672743 L1246.21957,214.672743 L1246.21957,1800.83524 L541.042613,1800.83524 L541.042613,506.26364 L539.819895,505.040922 L539.819895,229.726657 L541.042613,229.726657 L541.042613,214.672743 L687.035198,214.672743 Z" id="Combined-Shape" transform="translate(893.019733, 892.480267) rotate(-315.000000) translate(-893.019733, -892.480267) "></path>
                </g>
                <rect id="Rectangle-19" stroke="#979797" x="0.5" y="0.5" width="3655" height="3655"></rect>
            </g>
            <g id="Combined-Shape">
                <use fill="black" fill-opacity="1" filter="url(#filter-3)" xlink:href="#path-2"></use>
                <use fill="#2A9ECF" fill-rule="evenodd" xlink:href="#path-2"></use>
            </g>
        </g>
    </g>
</svg>