<?xml version="1.0" encoding="UTF-8"?>
<svg width="3656px" height="3656px" viewBox="0 0 3656 3656" version="1.1" xmlns="http://www.w3.org/2000/svg" xmlns:xlink="http://www.w3.org/1999/xlink">
    <!-- Generator: Sketch 50.2 (55047) - http://www.bohemiancoding.com/sketch -->
    <title>Group 3</title>
    <desc>Created with Sketch.</desc>
    <defs>
        <linearGradient x1="50%" y1="0%" x2="50%" y2="100%" id="linearGradient-1">
            <stop stop-color="#000000" stop-opacity="0.269361413" offset="0%"></stop>
            <stop stop-color="#000000" stop-opacity="0" offset="100%"></stop>
        </linearGradient>
        <path d="M1737.5,1655.01578 C1753.4367,1621.31424 1787.74568,1598 1827.5,1598 C1867.25432,1598 1901.5633,1621.31424 1917.5,1655.01578 C1933.4367,1621.31424 1967.74568,1598 2007.5,1598 C2062.45233,1598 2107,1642.54767 2107,1697.5 C2107,1737.25432 2083.68576,1771.5633 2049.98422,1787.5 C2083.68576,1803.4367 2107,1837.74568 2107,1877.5 C2107,1917.25432 2083.68576,1951.5633 2049.98422,1967.5 C2083.68576,1983.4367 2107,2017.74568 2107,2057.5 C2107,2112.45233 2062.45233,2157 2007.5,2157 C1967.74568,2157 1933.4367,2133.68576 1917.5,2099.98422 C1901.5633,2133.68576 1867.25432,2157 1827.5,2157 C1787.74568,2157 1753.4367,2133.68576 1737.5,2099.98422 C1721.5633,2133.68576 1687.25432,2157 1647.5,2157 C1592.54767,2157 1548,2112.45233 1548,2057.5 C1548,2017.74568 1571.31424,1983.4367 1605.01578,1967.5 C1571.31424,1951.5633 1548,1917.25432 1548,1877.5 C1548,1837.74568 1571.31424,1803.4367 1605.01578,1787.5 C1571.31424,1771.5633 1548,1737.25432 1548,1697.5 C1548,1642.54767 1592.54767,1598 1647.5,1598 C1687.25432,1598 1721.5633,1621.31424 1737.5,1655.01578 Z M1737.5,1739.98422 C1727.65588,1760.80171 1710.80171,1777.65588 1689.98422,1787.5 C1710.80171,1797.34412 1727.65588,1814.19829 1737.5,1835.01578 C1747.34412,1814.19829 1764.19829,1797.34412 1785.01578,1787.5 C1764.19829,1777.65588 1747.34412,1760.80171 1737.5,1739.98422 Z M1737.5,2015.01578 C1747.34412,1994.19829 1764.19829,1977.34412 1785.01578,1967.5 C1764.19829,1957.65588 1747.34412,1940.80171 1737.5,1919.98422 C1727.65588,1940.80171 1710.80171,1957.65588 1689.98422,1967.5 C1710.80171,1977.34412 1727.65588,1994.19829 1737.5,2015.01578 Z M1917.5,1739.98422 C1907.65588,1760.80171 1890.80171,1777.65588 1869.98422,1787.5 C1890.80171,1797.34412 1907.65588,1814.19829 1917.5,1835.01578 C1927.34412,1814.19829 1944.19829,1797.34412 1965.01578,1787.5 C1944.19829,1777.65588 1927.34412,1760.80171 1917.5,1739.98422 Z M1917.5,2015.01578 C1927.34412,1994.19829 1944.19829,1977.34412 1965.01578,1967.5 C1944.19829,1957.65588 1927.34412,1940.80171 1917.5,1919.98422 C1907.65588,1940.80171 1890.80171,1957.65588 1869.98422,1967.5 C1890.80171,1977.34412 1907.65588,1994.19829 1917.5,2015.01578 Z" id="path-2"></path>
        <filter x="-18.2%" y="-7.5%" width="125.8%" height="125.8%" filterUnits="objectBoundingBox" id="filter-3">
            <feOffset dx="-30" dy="30" in="SourceAlpha" result="shadowOffsetOuter1"></feOffset>
            <feGaussianBlur stdDeviation="19" in="shadowOffsetOuter1" result="shadowBlurOuter1"></feGaussianBlur>
            <feColorMatrix values="0 0 0 0 0   0 0 0 0 0   0 0 0 0 0  0 0 0 0.13 0" type="matrix" in="shadowBlurOuter1"></feColorMatrix>
        </filter>
    </defs>
    <g id="Page-1" stroke="none" stroke-width="1" fill="none" fill-rule="evenodd">
        <g id="Group-3">
            <g id="Group-2">
                <g id="Group" transform="translate(468.000000, 1452.000000)" fill="url(#linearGradient-1)">
                    <path d="M687.035198,214.672743 L687.035198,93.1747775 L792.4752,93.1747775 L901.524678,-15.8747005 L1010.57416,93.1747775 L1067.05629,93.1747775 L1067.05629,214.672743 L1246.21957,214.672743 L1246.21957,1800.83524 L541.042613,1800.83524 L541.042613,506.26364 L539.819895,505.040922 L539.819895,229.726657 L541.042613,229.726657 L541.042613,214.672743 L687.035198,214.672743 Z" id="Combined-Shape" transform="translate(893.019733, 892.480267) rotate(-315.000000) translate(-893.019733, -892.480267) "></path>
                </g>
                <rect id="Rectangle-19" stroke="#979797" x="0.5" y="0.5" width="3655" height="3655"></rect>
            </g>
            <g id="Combined-Shape">
                <use fill="black" fill-opacity="1" filter="url(#filter-3)" xlink:href="#path-2"></use>
                <use fill="#2A9ECF" fill-rule="evenodd" xlink:href="#path-2"></use>
            </g>
        </g>
    </g>
</svg>